<mxfile host="app.diagrams.net" modified="2022-09-14T11:57:48.117Z" agent="5.0 (Macintosh; Intel Mac OS X 10_15_7) AppleWebKit/537.36 (KHTML, like Gecko) Chrome/104.0.0.0 Safari/537.36" etag="wIG2vsp7xcV1AzAxqUKU" version="20.3.0" type="github">
  <diagram id="S-CYe9eD0dbDyCb8L1SF" name="第 1 页">
    <mxGraphModel dx="2893" dy="2297" grid="1" gridSize="10" guides="1" tooltips="1" connect="1" arrows="1" fold="1" page="1" pageScale="1" pageWidth="827" pageHeight="1169" math="0" shadow="0">
      <root>
        <mxCell id="0" />
        <mxCell id="1" parent="0" />
        <mxCell id="0PGKVWYsdbh4QJx4cHZf-64" value="&lt;b&gt;CentralDogma&lt;/b&gt;" style="rounded=0;whiteSpace=wrap;html=1;fillColor=#51E8C1;verticalAlign=top;" parent="1" vertex="1">
          <mxGeometry x="-10" y="-70" width="580" height="350" as="geometry" />
        </mxCell>
        <mxCell id="0PGKVWYsdbh4QJx4cHZf-63" value="" style="group;verticalAlign=top;" parent="1" vertex="1" connectable="0">
          <mxGeometry x="40" y="-30" width="550" height="320" as="geometry" />
        </mxCell>
        <mxCell id="0PGKVWYsdbh4QJx4cHZf-1" value="Project" style="rounded=0;whiteSpace=wrap;html=1;verticalAlign=top;fillColor=#59A6FF;fontColor=#000000;strokeColor=#B09500;" parent="0PGKVWYsdbh4QJx4cHZf-63" vertex="1">
          <mxGeometry width="480" height="300" as="geometry" />
        </mxCell>
        <mxCell id="0PGKVWYsdbh4QJx4cHZf-12" value="" style="group" parent="0PGKVWYsdbh4QJx4cHZf-63" vertex="1" connectable="0">
          <mxGeometry x="50" y="40" width="110" height="240" as="geometry" />
        </mxCell>
        <mxCell id="0PGKVWYsdbh4QJx4cHZf-2" value="Repository" style="rounded=0;whiteSpace=wrap;html=1;verticalAlign=top;fillColor=#66FCFF;" parent="0PGKVWYsdbh4QJx4cHZf-12" vertex="1">
          <mxGeometry width="110" height="240" as="geometry" />
        </mxCell>
        <mxCell id="0PGKVWYsdbh4QJx4cHZf-5" value="Revision 0" style="rounded=0;whiteSpace=wrap;html=1;fillColor=#59FFA3;" parent="0PGKVWYsdbh4QJx4cHZf-12" vertex="1">
          <mxGeometry x="17.5" y="40" width="75" height="30" as="geometry" />
        </mxCell>
        <mxCell id="0PGKVWYsdbh4QJx4cHZf-6" value="Revision 1" style="rounded=0;whiteSpace=wrap;html=1;fillColor=#59FFA3;" parent="0PGKVWYsdbh4QJx4cHZf-12" vertex="1">
          <mxGeometry x="17.5" y="95" width="75" height="30" as="geometry" />
        </mxCell>
        <mxCell id="0PGKVWYsdbh4QJx4cHZf-7" value="" style="edgeStyle=orthogonalEdgeStyle;rounded=0;orthogonalLoop=1;jettySize=auto;html=1;" parent="0PGKVWYsdbh4QJx4cHZf-12" source="0PGKVWYsdbh4QJx4cHZf-5" target="0PGKVWYsdbh4QJx4cHZf-6" edge="1">
          <mxGeometry relative="1" as="geometry" />
        </mxCell>
        <mxCell id="0PGKVWYsdbh4QJx4cHZf-8" value="Revision 2" style="rounded=0;whiteSpace=wrap;html=1;fillColor=#59FFA3;" parent="0PGKVWYsdbh4QJx4cHZf-12" vertex="1">
          <mxGeometry x="17.5" y="150" width="75" height="30" as="geometry" />
        </mxCell>
        <mxCell id="0PGKVWYsdbh4QJx4cHZf-9" value="" style="edgeStyle=orthogonalEdgeStyle;rounded=0;orthogonalLoop=1;jettySize=auto;html=1;" parent="0PGKVWYsdbh4QJx4cHZf-12" source="0PGKVWYsdbh4QJx4cHZf-6" target="0PGKVWYsdbh4QJx4cHZf-8" edge="1">
          <mxGeometry relative="1" as="geometry" />
        </mxCell>
        <mxCell id="0PGKVWYsdbh4QJx4cHZf-10" value="..." style="rounded=0;whiteSpace=wrap;html=1;fillColor=#59FFA3;" parent="0PGKVWYsdbh4QJx4cHZf-12" vertex="1">
          <mxGeometry x="17.5" y="200" width="75" height="30" as="geometry" />
        </mxCell>
        <mxCell id="0PGKVWYsdbh4QJx4cHZf-11" value="" style="edgeStyle=orthogonalEdgeStyle;rounded=0;orthogonalLoop=1;jettySize=auto;html=1;" parent="0PGKVWYsdbh4QJx4cHZf-12" source="0PGKVWYsdbh4QJx4cHZf-8" target="0PGKVWYsdbh4QJx4cHZf-10" edge="1">
          <mxGeometry relative="1" as="geometry" />
        </mxCell>
        <mxCell id="0PGKVWYsdbh4QJx4cHZf-45" value="" style="group" parent="0PGKVWYsdbh4QJx4cHZf-63" vertex="1" connectable="0">
          <mxGeometry x="330" y="40" width="110" height="240" as="geometry" />
        </mxCell>
        <mxCell id="0PGKVWYsdbh4QJx4cHZf-46" value="Repository" style="rounded=0;whiteSpace=wrap;html=1;verticalAlign=top;fillColor=#66FCFF;" parent="0PGKVWYsdbh4QJx4cHZf-45" vertex="1">
          <mxGeometry width="110" height="240" as="geometry" />
        </mxCell>
        <mxCell id="0PGKVWYsdbh4QJx4cHZf-47" value="Revision 0" style="rounded=0;whiteSpace=wrap;html=1;fillColor=#59FFA3;" parent="0PGKVWYsdbh4QJx4cHZf-45" vertex="1">
          <mxGeometry x="17.5" y="40" width="75" height="30" as="geometry" />
        </mxCell>
        <mxCell id="0PGKVWYsdbh4QJx4cHZf-48" value="Revision 1" style="rounded=0;whiteSpace=wrap;html=1;fillColor=#59FFA3;" parent="0PGKVWYsdbh4QJx4cHZf-45" vertex="1">
          <mxGeometry x="17.5" y="95" width="75" height="30" as="geometry" />
        </mxCell>
        <mxCell id="0PGKVWYsdbh4QJx4cHZf-49" value="" style="edgeStyle=orthogonalEdgeStyle;rounded=0;orthogonalLoop=1;jettySize=auto;html=1;" parent="0PGKVWYsdbh4QJx4cHZf-45" source="0PGKVWYsdbh4QJx4cHZf-47" target="0PGKVWYsdbh4QJx4cHZf-48" edge="1">
          <mxGeometry relative="1" as="geometry" />
        </mxCell>
        <mxCell id="0PGKVWYsdbh4QJx4cHZf-50" value="Revision 2" style="rounded=0;whiteSpace=wrap;html=1;fillColor=#59FFA3;" parent="0PGKVWYsdbh4QJx4cHZf-45" vertex="1">
          <mxGeometry x="17.5" y="150" width="75" height="30" as="geometry" />
        </mxCell>
        <mxCell id="0PGKVWYsdbh4QJx4cHZf-51" value="" style="edgeStyle=orthogonalEdgeStyle;rounded=0;orthogonalLoop=1;jettySize=auto;html=1;" parent="0PGKVWYsdbh4QJx4cHZf-45" source="0PGKVWYsdbh4QJx4cHZf-48" target="0PGKVWYsdbh4QJx4cHZf-50" edge="1">
          <mxGeometry relative="1" as="geometry" />
        </mxCell>
        <mxCell id="0PGKVWYsdbh4QJx4cHZf-52" value="..." style="rounded=0;whiteSpace=wrap;html=1;fillColor=#59FFA3;" parent="0PGKVWYsdbh4QJx4cHZf-45" vertex="1">
          <mxGeometry x="17.5" y="200" width="75" height="30" as="geometry" />
        </mxCell>
        <mxCell id="0PGKVWYsdbh4QJx4cHZf-53" value="" style="edgeStyle=orthogonalEdgeStyle;rounded=0;orthogonalLoop=1;jettySize=auto;html=1;" parent="0PGKVWYsdbh4QJx4cHZf-45" source="0PGKVWYsdbh4QJx4cHZf-50" target="0PGKVWYsdbh4QJx4cHZf-52" edge="1">
          <mxGeometry relative="1" as="geometry" />
        </mxCell>
        <mxCell id="0PGKVWYsdbh4QJx4cHZf-54" value="" style="group" parent="0PGKVWYsdbh4QJx4cHZf-63" vertex="1" connectable="0">
          <mxGeometry x="190" y="40" width="110" height="240" as="geometry" />
        </mxCell>
        <mxCell id="0PGKVWYsdbh4QJx4cHZf-55" value="Repository" style="rounded=0;whiteSpace=wrap;html=1;verticalAlign=top;fillColor=#66FCFF;" parent="0PGKVWYsdbh4QJx4cHZf-54" vertex="1">
          <mxGeometry width="110" height="240" as="geometry" />
        </mxCell>
        <mxCell id="0PGKVWYsdbh4QJx4cHZf-56" value="Revision 0" style="rounded=0;whiteSpace=wrap;html=1;fillColor=#59FFA3;" parent="0PGKVWYsdbh4QJx4cHZf-54" vertex="1">
          <mxGeometry x="17.5" y="40" width="75" height="30" as="geometry" />
        </mxCell>
        <mxCell id="0PGKVWYsdbh4QJx4cHZf-57" value="Revision 1" style="rounded=0;whiteSpace=wrap;html=1;fillColor=#59FFA3;" parent="0PGKVWYsdbh4QJx4cHZf-54" vertex="1">
          <mxGeometry x="17.5" y="95" width="75" height="30" as="geometry" />
        </mxCell>
        <mxCell id="0PGKVWYsdbh4QJx4cHZf-58" value="" style="edgeStyle=orthogonalEdgeStyle;rounded=0;orthogonalLoop=1;jettySize=auto;html=1;" parent="0PGKVWYsdbh4QJx4cHZf-54" source="0PGKVWYsdbh4QJx4cHZf-56" target="0PGKVWYsdbh4QJx4cHZf-57" edge="1">
          <mxGeometry relative="1" as="geometry" />
        </mxCell>
        <mxCell id="0PGKVWYsdbh4QJx4cHZf-59" value="Revision 2" style="rounded=0;whiteSpace=wrap;html=1;fillColor=#59FFA3;" parent="0PGKVWYsdbh4QJx4cHZf-54" vertex="1">
          <mxGeometry x="17.5" y="150" width="75" height="30" as="geometry" />
        </mxCell>
        <mxCell id="0PGKVWYsdbh4QJx4cHZf-60" value="" style="edgeStyle=orthogonalEdgeStyle;rounded=0;orthogonalLoop=1;jettySize=auto;html=1;" parent="0PGKVWYsdbh4QJx4cHZf-54" source="0PGKVWYsdbh4QJx4cHZf-57" target="0PGKVWYsdbh4QJx4cHZf-59" edge="1">
          <mxGeometry relative="1" as="geometry" />
        </mxCell>
        <mxCell id="0PGKVWYsdbh4QJx4cHZf-61" value="..." style="rounded=0;whiteSpace=wrap;html=1;fillColor=#59FFA3;" parent="0PGKVWYsdbh4QJx4cHZf-54" vertex="1">
          <mxGeometry x="17.5" y="200" width="75" height="30" as="geometry" />
        </mxCell>
        <mxCell id="0PGKVWYsdbh4QJx4cHZf-62" value="" style="edgeStyle=orthogonalEdgeStyle;rounded=0;orthogonalLoop=1;jettySize=auto;html=1;" parent="0PGKVWYsdbh4QJx4cHZf-54" source="0PGKVWYsdbh4QJx4cHZf-59" target="0PGKVWYsdbh4QJx4cHZf-61" edge="1">
          <mxGeometry relative="1" as="geometry" />
        </mxCell>
      </root>
    </mxGraphModel>
  </diagram>
</mxfile>
